# xmcd CD database file
#
# Track frame offsets:
#	150
#	15802
#	31952
#	50302
#	67028
#	80487
#	100226
#	116825
#	134538
#	150474
#	166451
#
# Disc length: 2464 seconds
#
# Revision: 4
# Processed by: cddbd v1.5.2PL0 Copyright (c) Steve Scherf et al.
# Submitted via: CDex 1.51
#
DISCID=86099e0b
DTITLE=Chuck Wicks - Starting Now
DYEAR=2008
DGENRE=Country
TTITLE0=All I Ever Wanted
TTITLE1=Good Time Comin' On
TTITLE2=Stealing Cinderella
TTITLE3=If We Loved
TTITLE4=When You're Single
TTITLE5=Starting Now
TTITLE6=The Easy Part
TTITLE7=What If You Stay
TTITLE8=She's Gonna Hurt Somebody
TTITLE9=Mine All Mine
TTITLE10=Man Of The House
EXTD=YEAR: 2008
EXTT0=
EXTT1=
EXTT2=
EXTT3=
EXTT4=
EXTT5=
EXTT6=
EXTT7=
EXTT8=
EXTT9=
EXTT10=
PLAYORDER=
